<?xml version="1.0" standalone="no"?>
<!DOCTYPE svg PUBLIC "-//W3C//DTD SVG 20010904//EN"
 "http://www.w3.org/TR/2001/REC-SVG-20010904/DTD/svg10.dtd">
<svg version="1.0" xmlns="http://www.w3.org/2000/svg"
 width="1514.000000pt" height="338.000000pt" viewBox="0 0 1514.000000 338.000000"
 preserveAspectRatio="xMidYMid meet">

<defs>
<linearGradient id="hv-logo-text-brand-gradient" gradientUnits="userSpaceOnUse" x1="0" y1="1680" x2="15140" y2="1680">
<stop offset="0%" stop-color="#FCE9B7"/>
<stop offset="12%" stop-color="#F3E6A9"/>
<stop offset="25%" stop-color="#F0DBC0"/>
<stop offset="38%" stop-color="#E7C2C9"/>
<stop offset="50%" stop-color="#D4B0D7"/>
<stop offset="64%" stop-color="#BFA9DD"/>
<stop offset="80%" stop-color="#AEA1D9"/>
<stop offset="100%" stop-color="#9B95C5"/>
</linearGradient>
</defs><g transform="translate(0.000000,338.000000) scale(0.100000,-0.100000)"
fill="url(#hv-logo-text-brand-gradient)" stroke="none">
<path d="M12815 3099 c-223 -34 -371 -152 -447 -355 -21 -57 -22 -74 -26 -485
-3 -357 -1 -437 12 -492 56 -242 251 -397 519 -413 294 -19 515 143 571 418
22 109 23 808 1 913 -44 206 -185 358 -375 403 -69 16 -188 22 -255 11z m380
-225 c67 -23 135 -93 166 -170 23 -58 23 -68 27 -427 2 -235 0 -393 -7 -438
-20 -124 -77 -205 -176 -251 -41 -19 -67 -23 -140 -23 -77 1 -97 5 -140 27
-65 34 -97 69 -132 143 l-28 60 -3 413 c-3 455 -1 472 57 564 72 113 224 154
376 102z"/>
<path d="M2489 3081 c-111 -36 -218 -135 -275 -256 -25 -53 -376 -1230 -419
-1407 -7 -27 -5 -28 29 -28 34 0 36 2 51 52 8 29 48 163 88 298 l73 245 337 3
337 2 0 -295 0 -295 211 0 210 0 -3 628 c-4 694 -2 671 -72 817 -59 125 -156
207 -281 240 -80 20 -215 19 -286 -4z m80 -199 c20 -10 51 -40 68 -66 61 -90
66 -119 71 -453 l4 -303 -327 0 -327 0 7 28 c27 111 191 664 205 692 25 48 80
99 126 116 48 18 123 12 173 -14z"/>
<path d="M5065 3094 c-88 -21 -118 -31 -177 -61 -88 -46 -160 -119 -204 -208
-61 -123 -63 -157 -64 -842 l0 -613 333 0 c253 0 348 4 401 15 189 40 317 153
384 337 l26 73 4 404 c4 461 0 503 -59 619 -61 124 -156 206 -290 253 -52 18
-90 23 -199 25 -74 2 -144 1 -155 -2z m421 -220 c77 -21 137 -72 176 -151 l33
-68 3 -391 c3 -428 -1 -467 -55 -582 -32 -69 -121 -160 -186 -191 -82 -40
-144 -51 -285 -51 l-133 0 3 608 c4 683 1 657 80 747 84 95 207 122 364 79z"/>
<path d="M6282 3080 c-230 -60 -370 -235 -388 -484 -11 -155 38 -305 130 -399
84 -86 172 -134 397 -212 242 -85 321 -131 359 -210 45 -93 26 -190 -51 -259
-61 -55 -135 -84 -243 -95 -272 -27 -488 106 -513 319 -6 49 -7 50 -39 50 -32
0 -34 -2 -34 -34 0 -57 37 -159 80 -218 49 -68 137 -130 229 -159 134 -43 368
-35 514 18 226 81 330 245 330 518 -1 171 -46 282 -156 381 -77 69 -167 118
-375 203 -252 103 -316 143 -360 225 -21 41 -21 141 1 183 52 98 218 152 383
124 179 -31 300 -144 320 -298 7 -53 7 -53 42 -53 l35 0 -7 55 c-20 173 -137
303 -317 350 -78 21 -247 18 -337 -5z"/>
<path d="M10708 3076 c-98 -29 -177 -77 -241 -146 -159 -173 -181 -480 -49
-678 70 -107 193 -181 442 -267 239 -83 332 -140 366 -221 20 -49 18 -138 -5
-183 -21 -41 -74 -92 -121 -116 -83 -43 -278 -61 -385 -35 -163 40 -289 170
-303 312 -4 47 -5 48 -40 48 l-35 0 7 -62 c16 -160 129 -289 303 -350 60 -20
86 -23 223 -23 129 1 168 5 233 23 164 47 267 123 326 241 49 96 64 176 59
321 -3 120 -5 129 -41 203 -71 151 -179 231 -477 352 -270 111 -322 143 -364
227 -41 82 -30 161 30 228 89 99 319 117 481 39 107 -51 169 -140 189 -266 6
-41 8 -43 40 -43 39 0 41 7 23 92 -33 160 -160 282 -327 317 -91 19 -247 13
-334 -13z"/>
<path d="M460 2225 l0 -835 205 0 205 0 0 390 0 390 380 0 380 0 0 -390 0
-390 35 0 35 0 0 835 0 835 -35 0 -35 0 0 -410 0 -410 -380 0 -380 0 0 410 0
410 -205 0 -205 0 0 -835z"/>
<path d="M3280 2225 l0 -835 35 0 35 0 2 746 3 746 163 -583 c116 -419 173
-607 201 -665 51 -107 139 -202 229 -246 61 -30 74 -33 162 -33 88 0 101 3
162 33 76 37 120 82 157 162 l26 55 3 728 3 727 -36 0 -35 0 0 -700 c0 -760 1
-744 -55 -788 -19 -15 -42 -22 -74 -22 -55 0 -93 30 -121 94 -10 23 -102 342
-205 711 -102 369 -189 678 -191 688 -5 16 -25 17 -235 17 l-229 0 0 -835z"/>
<path d="M7272 3044 c2 -12 37 -27 115 -49 62 -19 117 -36 123 -40 6 -4 10
-58 10 -141 l0 -134 -125 0 -125 0 0 -91 0 -91 273 4 c306 4 330 8 394 81 36
41 48 86 41 156 -6 59 -35 103 -91 135 -34 20 -579 186 -609 186 -5 0 -8 -7
-6 -16z m441 -144 c155 -44 187 -65 187 -121 0 -77 -50 -99 -225 -99 l-125 0
0 130 c0 86 4 130 11 130 6 0 74 -18 152 -40z"/>
<path d="M8183 2423 c3 -704 2 -682 69 -821 136 -277 522 -337 743 -115 93 94
113 149 315 848 101 347 185 638 188 648 4 15 18 17 108 17 l104 0 -2 -692 -3
-693 -24 -48 c-31 -64 -75 -95 -150 -108 -58 -11 -61 -12 -61 -40 l0 -29 450
0 450 0 0 30 c0 26 -4 30 -37 35 -21 3 -49 8 -63 11 -35 8 -105 82 -121 129
-10 31 -14 187 -17 723 l-3 682 121 0 120 0 0 30 0 30 -463 0 -462 0 -198
-682 c-211 -729 -217 -745 -295 -798 -25 -18 -52 -25 -98 -28 -112 -7 -182 45
-230 173 -17 47 -19 92 -22 693 l-3 642 -210 0 -210 0 4 -637z"/>
<path d="M11452 3033 l3 -28 123 -3 123 -3 -3 -682 -3 -682 -23 -50 c-41 -88
-77 -114 -180 -130 -39 -6 -43 -9 -40 -33 l3 -27 453 -3 452 -2 0 29 c0 28 -3
29 -62 40 -70 12 -102 31 -135 81 -47 68 -47 70 -50 783 l-4 677 125 0 126 0
0 30 0 30 -456 0 -455 0 3 -27z"/>
<path d="M13620 2225 l0 -835 35 0 35 0 2 746 3 746 154 -553 c84 -305 166
-589 181 -631 51 -140 155 -263 267 -316 50 -23 71 -27 153 -27 88 0 101 3
162 33 76 37 120 82 157 162 l26 55 3 728 3 727 -36 0 -35 0 0 -700 c0 -760 1
-744 -55 -788 -43 -34 -115 -31 -152 7 -16 15 -36 46 -46 67 -13 30 -397 1394
-397 1410 0 2 -103 4 -230 4 l-230 0 0 -835z"/>
<path d="M7270 2430 c0 -20 6 -20 308 -21 205 -1 297 -4 277 -10 -16 -5 -133
-39 -260 -74 -151 -43 -242 -74 -267 -91 -99 -69 -103 -224 -7 -276 30 -16 62
-18 341 -18 267 0 308 2 308 15 0 13 -39 15 -289 15 -162 0 -301 4 -315 10
-34 13 -45 56 -20 80 12 12 129 50 319 103 l300 84 0 99 0 99 -347 3 c-343 2
-348 2 -348 -18z"/>
<path d="M7260 1729 c0 -177 10 -219 62 -271 59 -59 115 -71 326 -66 167 3
180 4 222 28 24 14 58 45 75 68 26 39 30 53 34 127 3 73 0 91 -22 139 -29 62
-75 99 -147 115 -25 6 -159 11 -297 11 l-253 0 0 -151z m570 -47 c90 -44 89
-191 -1 -238 -21 -11 -71 -14 -212 -14 -173 0 -186 1 -228 23 -60 32 -90 88
-97 178 l-5 69 254 0 c222 0 258 -2 289 -18z"/>
<path d="M3542 825 c-100 -31 -153 -107 -153 -219 0 -118 66 -202 179 -227 65
-14 139 2 183 38 34 29 36 39 10 53 -16 8 -28 5 -58 -16 -32 -22 -46 -25 -94
-22 -100 7 -153 66 -154 174 0 49 5 68 27 101 48 72 142 94 219 51 38 -21 40
-21 57 -4 16 16 16 18 -11 41 -49 44 -126 55 -205 30z"/>
<path d="M4495 831 c-109 -28 -175 -116 -175 -230 0 -50 29 -123 63 -159 64
-69 189 -88 280 -43 164 80 167 329 5 412 -42 21 -129 32 -173 20z m135 -66
c82 -42 116 -167 68 -249 -37 -63 -69 -81 -143 -81 -69 0 -99 15 -139 69 -30
40 -30 162 0 203 51 69 144 94 214 58z"/>
<path d="M8022 825 c-100 -31 -153 -107 -153 -219 0 -118 66 -202 179 -227 65
-14 139 2 183 38 34 29 36 39 10 53 -16 8 -28 5 -58 -16 -32 -22 -46 -25 -94
-22 -100 7 -153 66 -154 174 0 49 5 68 27 101 48 72 142 94 219 51 38 -21 40
-21 57 -4 16 16 16 18 -11 41 -49 44 -126 55 -205 30z"/>
<path d="M5374 817 c-2 -7 -3 -107 -2 -222 l3 -210 128 -3 127 -3 0 31 0 30
-100 0 -100 0 0 195 0 195 -25 0 c-14 0 -28 -6 -31 -13z"/>
<path d="M6192 608 l3 -223 128 -3 127 -3 0 31 0 30 -100 0 -100 0 0 195 0
195 -30 0 -30 0 2 -222z"/>
<path d="M7012 608 l3 -223 143 -3 142 -3 0 31 0 30 -115 0 -116 0 3 73 3 72
103 3 c101 3 102 3 102 27 0 25 0 25 -105 25 l-105 0 0 65 0 64 113 3 112 3 0
25 0 25 -143 3 -142 3 2 -223z"/>
<path d="M8780 800 l0 -30 70 0 70 0 0 -195 0 -195 30 0 30 0 0 195 0 195 70
0 70 0 0 30 0 30 -170 0 -170 0 0 -30z"/>
<path d="M9682 608 l3 -223 28 -3 27 -3 0 225 0 226 -30 0 -30 0 2 -222z"/>
<path d="M10300 823 c0 -4 38 -105 84 -223 82 -210 85 -215 113 -215 27 0 30
5 115 220 49 121 88 221 88 223 0 1 -15 2 -33 2 l-34 0 -53 -147 c-29 -82 -60
-164 -68 -183 l-14 -35 -67 180 c-66 180 -66 180 -99 183 -17 2 -32 0 -32 -5z"/>
<path d="M11252 608 l3 -223 145 0 145 0 0 25 0 25 -118 3 -118 3 3 72 3 72
103 3 c101 3 102 3 102 27 0 25 0 25 -105 25 l-105 0 0 65 0 64 113 3 112 3 0
25 0 25 -143 3 -142 3 2 -223z"/>
</g>
</svg>
